<mxfile host="app.diagrams.net" agent="Mozilla/5.0 (Windows NT 10.0; Win64; x64) AppleWebKit/537.36 (KHTML, like Gecko) Chrome/140.0.0.0 Safari/537.36 Edg/140.0.0.0" version="28.2.3">
  <diagram name="Page-1" id="cURnfNZZvASoqaJvJdXm">
    <mxGraphModel dx="559" dy="308" grid="1" gridSize="10" guides="1" tooltips="1" connect="1" arrows="1" fold="1" page="1" pageScale="1" pageWidth="850" pageHeight="1100" math="0" shadow="0">
      <root>
        <mxCell id="0" />
        <mxCell id="1" parent="0" />
        <mxCell id="c_RklMGF2fpBpNRFS4wp-2" style="edgeStyle=orthogonalEdgeStyle;rounded=0;orthogonalLoop=1;jettySize=auto;html=1;" edge="1" parent="1" source="c_RklMGF2fpBpNRFS4wp-1" target="c_RklMGF2fpBpNRFS4wp-3">
          <mxGeometry relative="1" as="geometry">
            <mxPoint x="150" y="170" as="targetPoint" />
          </mxGeometry>
        </mxCell>
        <mxCell id="c_RklMGF2fpBpNRFS4wp-1" value="Start" style="ellipse;whiteSpace=wrap;html=1;aspect=fixed;" vertex="1" parent="1">
          <mxGeometry x="110" y="30" width="80" height="80" as="geometry" />
        </mxCell>
        <mxCell id="c_RklMGF2fpBpNRFS4wp-4" style="edgeStyle=orthogonalEdgeStyle;rounded=0;orthogonalLoop=1;jettySize=auto;html=1;" edge="1" parent="1" source="c_RklMGF2fpBpNRFS4wp-3" target="c_RklMGF2fpBpNRFS4wp-5">
          <mxGeometry relative="1" as="geometry">
            <mxPoint x="150" y="240" as="targetPoint" />
          </mxGeometry>
        </mxCell>
        <mxCell id="c_RklMGF2fpBpNRFS4wp-3" value="Settings" style="rounded=1;whiteSpace=wrap;html=1;" vertex="1" parent="1">
          <mxGeometry x="110" y="160" width="80" height="30" as="geometry" />
        </mxCell>
        <mxCell id="c_RklMGF2fpBpNRFS4wp-6" style="edgeStyle=orthogonalEdgeStyle;rounded=0;orthogonalLoop=1;jettySize=auto;html=1;" edge="1" parent="1" source="c_RklMGF2fpBpNRFS4wp-5" target="c_RklMGF2fpBpNRFS4wp-7">
          <mxGeometry relative="1" as="geometry">
            <mxPoint x="150" y="310" as="targetPoint" />
          </mxGeometry>
        </mxCell>
        <mxCell id="c_RklMGF2fpBpNRFS4wp-5" value="Edit Profile" style="rounded=1;whiteSpace=wrap;html=1;" vertex="1" parent="1">
          <mxGeometry x="110" y="240" width="80" height="30" as="geometry" />
        </mxCell>
        <mxCell id="c_RklMGF2fpBpNRFS4wp-9" style="edgeStyle=orthogonalEdgeStyle;rounded=0;orthogonalLoop=1;jettySize=auto;html=1;exitX=0.25;exitY=1;exitDx=0;exitDy=0;" edge="1" parent="1" source="c_RklMGF2fpBpNRFS4wp-7">
          <mxGeometry relative="1" as="geometry">
            <mxPoint x="50" y="389.9999999999999" as="targetPoint" />
          </mxGeometry>
        </mxCell>
        <mxCell id="c_RklMGF2fpBpNRFS4wp-13" style="edgeStyle=orthogonalEdgeStyle;rounded=0;orthogonalLoop=1;jettySize=auto;html=1;exitX=0.75;exitY=1;exitDx=0;exitDy=0;" edge="1" parent="1" source="c_RklMGF2fpBpNRFS4wp-7" target="c_RklMGF2fpBpNRFS4wp-14">
          <mxGeometry relative="1" as="geometry">
            <mxPoint x="250" y="389.9999999999999" as="targetPoint" />
          </mxGeometry>
        </mxCell>
        <mxCell id="c_RklMGF2fpBpNRFS4wp-7" value="Is user logged in?" style="rounded=1;whiteSpace=wrap;html=1;" vertex="1" parent="1">
          <mxGeometry x="105" y="310" width="90" height="40" as="geometry" />
        </mxCell>
        <mxCell id="c_RklMGF2fpBpNRFS4wp-11" style="edgeStyle=orthogonalEdgeStyle;rounded=0;orthogonalLoop=1;jettySize=auto;html=1;" edge="1" parent="1" source="c_RklMGF2fpBpNRFS4wp-10" target="c_RklMGF2fpBpNRFS4wp-12">
          <mxGeometry relative="1" as="geometry">
            <mxPoint x="50" y="460.0000000000001" as="targetPoint" />
          </mxGeometry>
        </mxCell>
        <mxCell id="c_RklMGF2fpBpNRFS4wp-10" value="Must have account" style="rounded=1;whiteSpace=wrap;html=1;" vertex="1" parent="1">
          <mxGeometry x="10" y="390" width="80" height="40" as="geometry" />
        </mxCell>
        <mxCell id="c_RklMGF2fpBpNRFS4wp-12" value="Create account, end" style="ellipse;whiteSpace=wrap;html=1;aspect=fixed;" vertex="1" parent="1">
          <mxGeometry x="20" y="470" width="60" height="60" as="geometry" />
        </mxCell>
        <mxCell id="c_RklMGF2fpBpNRFS4wp-15" style="edgeStyle=orthogonalEdgeStyle;rounded=0;orthogonalLoop=1;jettySize=auto;html=1;" edge="1" parent="1" source="c_RklMGF2fpBpNRFS4wp-14" target="c_RklMGF2fpBpNRFS4wp-16">
          <mxGeometry relative="1" as="geometry">
            <mxPoint x="370" y="409.9999999999999" as="targetPoint" />
          </mxGeometry>
        </mxCell>
        <mxCell id="c_RklMGF2fpBpNRFS4wp-14" value="New page to edit profile" style="rounded=1;whiteSpace=wrap;html=1;" vertex="1" parent="1">
          <mxGeometry x="200" y="390" width="100" height="40" as="geometry" />
        </mxCell>
        <mxCell id="c_RklMGF2fpBpNRFS4wp-17" value="" style="edgeStyle=orthogonalEdgeStyle;rounded=0;orthogonalLoop=1;jettySize=auto;html=1;" edge="1" parent="1" source="c_RklMGF2fpBpNRFS4wp-16" target="c_RklMGF2fpBpNRFS4wp-14">
          <mxGeometry relative="1" as="geometry">
            <Array as="points">
              <mxPoint x="340" y="410" />
              <mxPoint x="340" y="410" />
            </Array>
          </mxGeometry>
        </mxCell>
        <mxCell id="c_RklMGF2fpBpNRFS4wp-20" value="" style="edgeStyle=orthogonalEdgeStyle;rounded=0;orthogonalLoop=1;jettySize=auto;html=1;" edge="1" parent="1" source="c_RklMGF2fpBpNRFS4wp-16" target="c_RklMGF2fpBpNRFS4wp-19">
          <mxGeometry relative="1" as="geometry" />
        </mxCell>
        <mxCell id="c_RklMGF2fpBpNRFS4wp-16" value="Change name" style="rounded=1;whiteSpace=wrap;html=1;" vertex="1" parent="1">
          <mxGeometry x="370" y="390" width="90" height="40" as="geometry" />
        </mxCell>
        <mxCell id="c_RklMGF2fpBpNRFS4wp-22" value="" style="edgeStyle=orthogonalEdgeStyle;rounded=0;orthogonalLoop=1;jettySize=auto;html=1;" edge="1" parent="1" source="c_RklMGF2fpBpNRFS4wp-19" target="c_RklMGF2fpBpNRFS4wp-21">
          <mxGeometry relative="1" as="geometry" />
        </mxCell>
        <mxCell id="c_RklMGF2fpBpNRFS4wp-19" value="Change age" style="whiteSpace=wrap;html=1;rounded=1;" vertex="1" parent="1">
          <mxGeometry x="367.5" y="320" width="95" height="40" as="geometry" />
        </mxCell>
        <mxCell id="c_RklMGF2fpBpNRFS4wp-24" value="" style="edgeStyle=orthogonalEdgeStyle;rounded=0;orthogonalLoop=1;jettySize=auto;html=1;" edge="1" parent="1" source="c_RklMGF2fpBpNRFS4wp-21" target="c_RklMGF2fpBpNRFS4wp-23">
          <mxGeometry relative="1" as="geometry" />
        </mxCell>
        <mxCell id="c_RklMGF2fpBpNRFS4wp-21" value="Change email" style="whiteSpace=wrap;html=1;rounded=1;" vertex="1" parent="1">
          <mxGeometry x="366.25" y="240" width="97.5" height="40" as="geometry" />
        </mxCell>
        <mxCell id="c_RklMGF2fpBpNRFS4wp-26" value="" style="edgeStyle=orthogonalEdgeStyle;rounded=0;orthogonalLoop=1;jettySize=auto;html=1;" edge="1" parent="1" source="c_RklMGF2fpBpNRFS4wp-23" target="c_RklMGF2fpBpNRFS4wp-25">
          <mxGeometry relative="1" as="geometry" />
        </mxCell>
        <mxCell id="c_RklMGF2fpBpNRFS4wp-23" value="Type of clown" style="whiteSpace=wrap;html=1;rounded=1;" vertex="1" parent="1">
          <mxGeometry x="363.13" y="160" width="103.75" height="45" as="geometry" />
        </mxCell>
        <mxCell id="c_RklMGF2fpBpNRFS4wp-28" value="" style="edgeStyle=orthogonalEdgeStyle;rounded=0;orthogonalLoop=1;jettySize=auto;html=1;" edge="1" parent="1" source="c_RklMGF2fpBpNRFS4wp-25" target="c_RklMGF2fpBpNRFS4wp-27">
          <mxGeometry relative="1" as="geometry" />
        </mxCell>
        <mxCell id="c_RklMGF2fpBpNRFS4wp-25" value="Location or&amp;nbsp;&lt;div&gt;hometown&lt;/div&gt;" style="whiteSpace=wrap;html=1;rounded=1;" vertex="1" parent="1">
          <mxGeometry x="362.51" y="90" width="105" height="40" as="geometry" />
        </mxCell>
        <mxCell id="c_RklMGF2fpBpNRFS4wp-29" style="edgeStyle=orthogonalEdgeStyle;rounded=0;orthogonalLoop=1;jettySize=auto;html=1;" edge="1" parent="1" source="c_RklMGF2fpBpNRFS4wp-27" target="c_RklMGF2fpBpNRFS4wp-30">
          <mxGeometry relative="1" as="geometry">
            <mxPoint x="560" y="120" as="targetPoint" />
          </mxGeometry>
        </mxCell>
        <mxCell id="c_RklMGF2fpBpNRFS4wp-27" value="Languages" style="whiteSpace=wrap;html=1;rounded=1;" vertex="1" parent="1">
          <mxGeometry x="363.13" y="20" width="105" height="40" as="geometry" />
        </mxCell>
        <mxCell id="c_RklMGF2fpBpNRFS4wp-32" value="" style="edgeStyle=orthogonalEdgeStyle;rounded=0;orthogonalLoop=1;jettySize=auto;html=1;" edge="1" parent="1" source="c_RklMGF2fpBpNRFS4wp-30" target="c_RklMGF2fpBpNRFS4wp-31">
          <mxGeometry relative="1" as="geometry" />
        </mxCell>
        <mxCell id="c_RklMGF2fpBpNRFS4wp-30" value="Save changes" style="rounded=1;whiteSpace=wrap;html=1;" vertex="1" parent="1">
          <mxGeometry x="510" y="110" width="110" height="40" as="geometry" />
        </mxCell>
        <mxCell id="c_RklMGF2fpBpNRFS4wp-31" value="Profile set, end" style="ellipse;whiteSpace=wrap;html=1;rounded=1;" vertex="1" parent="1">
          <mxGeometry x="525" y="210" width="80" height="80" as="geometry" />
        </mxCell>
      </root>
    </mxGraphModel>
  </diagram>
</mxfile>
